<svg width="42" height="42" viewBox="0 0 42 42" fill="none" xmlns="http://www.w3.org/2000/svg">
<rect width="42" height="42" rx="12" fill="#FF2748"/>
<path d="M25.2351 18.6241H16.2093C14.9322 18.6241 14.4885 17.7692 15.2353 16.7302L19.7482 10.41C20.2785 9.65241 21.1659 9.65241 21.6962 10.41L26.2091 16.7302C26.9559 17.7692 26.5122 18.6241 25.2351 18.6241Z" fill="url(#paint0_linear_3342_4375)"/>
<path d="M26.7711 27.217H14.6717C12.9617 27.217 12.3773 26.0806 13.3838 24.6954L17.7019 18.624H23.7408L28.0589 24.6954C29.0654 26.0806 28.481 27.217 26.7711 27.217Z" fill="url(#paint1_linear_3342_4375)"/>
<path d="M21.5335 27.2173V31.5462C21.5335 31.9899 21.1656 32.3579 20.7218 32.3579C20.2781 32.3579 19.9102 31.9899 19.9102 31.5462V27.2173H21.5335Z" fill="white"/>
<defs>
<linearGradient id="paint0_linear_3342_4375" x1="20.7222" y1="5.80257" x2="20.7222" y2="21.2763" gradientUnits="userSpaceOnUse">
<stop offset="0.154098" stop-color="white" stop-opacity="0"/>
<stop offset="0.740943" stop-color="white"/>
</linearGradient>
<linearGradient id="paint1_linear_3342_4375" x1="20.7214" y1="14.6719" x2="20.7214" y2="29.8119" gradientUnits="userSpaceOnUse">
<stop offset="0.154098" stop-color="white" stop-opacity="0"/>
<stop offset="0.740943" stop-color="white"/>
</linearGradient>
</defs>
</svg>
